<svg xmlns="http://www.w3.org/2000/svg" viewBox="0 0 64 64" width="100" height="100" style="fill: rgb(0, 0, 0);">
    <path d="M 32 2 C 29.43 2.011 26.907453 2.701 24.689453 4 C 20.999453 4.14 18.42 6.7603906 18 10.900391 C 17.815 12.765391 17.859859 14.646 18.130859 16.5 C 18.184859 16.831 18.214703 17.165 18.220703 17.5 C 18.220703 17.687 18.190859 17.873547 18.130859 18.060547 C 17.982859 18.064547 17.833453 18.083141 17.689453 18.119141 C 16.039453 18.559141 15.349844 20.970469 16.089844 23.730469 C 16.629844 25.730469 17.750703 27.230469 18.970703 27.730469 C 19.593703 29.588469 20.449531 31.358 21.519531 33 L 21.517578 33.001953 C 21.570799 33.109796 21.655662 33.240098 21.736328 33.367188 L 8.2929688 39.388672 C 4.4699688 41.197672 2 45.100125 2 49.328125 L 2 57 C 2 58.654 3.346 60 5 60 L 59 60 C 60.654 60 62 58.654 62 57 L 62 49.328125 C 62 45.100125 59.531453 41.197906 55.689453 39.378906 L 42.240234 33.355469 C 42.328999 33.223563 42.480469 33 42.480469 33 C 43.539469 31.357 44.386 29.586469 45 27.730469 C 46.23 27.270469 47.350859 25.730469 47.880859 23.730469 C 48.620859 20.980469 47.879297 18.569141 46.279297 18.119141 C 46.138297 18.083141 45.994609 18.064547 45.849609 18.060547 C 45.677609 16.881547 45.369688 15.726141 44.929688 14.619141 L 44.929688 14.509766 C 45.403687 14.566766 45.868547 14.687141 46.310547 14.869141 C 46.820547 15.081141 47.405188 14.840078 47.617188 14.330078 C 47.696188 14.140078 47.713922 13.930469 47.669922 13.730469 C 45.999922 6.4104687 40.56 2 33 2 L 32 2 z M 32 4 L 33 4 C 39.07 4 43.45 7.1000781 45.25 12.580078 C 44.577 12.449078 43.879609 12.625547 43.349609 13.060547 C 42.773609 13.687547 42.657547 14.609375 43.060547 15.359375 C 43.593547 16.653375 43.898937 18.031687 43.960938 19.429688 C 43.988937 19.981687 44.458766 20.406906 45.009766 20.378906 C 45.183766 20.369906 45.352047 20.315703 45.498047 20.220703 C 45.578047 20.160703 45.671531 20.118609 45.769531 20.099609 C 46.010531 20.179609 46.449219 21.4 45.949219 23.25 C 45.449219 25.1 44.510703 25.869141 44.220703 25.869141 C 43.761703 25.851141 43.348703 26.148844 43.220703 26.589844 C 41.590703 32.259844 37.18 38 32 38 C 26.82 38 22.410703 32.259609 20.720703 26.599609 C 20.597703 26.176609 20.210531 25.884859 19.769531 25.880859 L 19.75 25.880859 C 19.46 25.880859 18.509531 25.099766 18.019531 23.259766 C 17.529531 21.419766 17.969219 20.169375 18.199219 20.109375 C 18.298219 20.126375 18.391703 20.168469 18.470703 20.230469 C 18.938703 20.523469 19.554656 20.382063 19.847656 19.914062 C 19.938656 19.768062 19.991 19.601688 20 19.429688 C 20.024 18.913688 20.080922 18.399625 20.169922 17.890625 C 20.221922 17.342625 20.194844 16.79 20.089844 16.25 C 19.850844 14.543 19.821 12.813609 20 11.099609 C 20.31 7.9096094 22.19 6 25 6 C 25.216 6 25.426609 5.9307812 25.599609 5.8007812 C 27.522609 4.6137813 29.74 3.99 32 4 z M 26.171875 10.125 C 25.582197 10.178984 25.024687 10.493281 24.679688 11.019531 L 23.080078 13.449219 C 22.784078 13.915219 22.922672 14.534078 23.388672 14.830078 C 23.843672 15.119078 24.446 14.995781 24.75 14.550781 L 26.349609 12.119141 L 27.919922 12.880859 C 30.783922 14.270859 33.925375 14.995 37.109375 15 L 39.660156 15 C 40.212156 15 40.660156 14.552 40.660156 14 C 40.660156 13.448 40.212156 13 39.660156 13 L 37.109375 13 C 34.226375 12.996 31.382062 12.339078 28.789062 11.080078 L 27.230469 10.320312 C 26.891094 10.154563 26.525682 10.092609 26.171875 10.125 z M 22.974609 35.001953 C 25.399749 37.936294 28.529301 40 32 40 C 35.47276 40 38.603538 37.93277 41.029297 35.003906 L 54.851562 41.195312 C 57.978562 42.676312 60 45.868125 60 49.328125 L 60 57 C 60 57.551 59.551 58 59 58 L 5 58 C 4.449 58 4 57.551 4 57 L 4 49.328125 C 4 45.871125 6.0166719 42.682219 9.1386719 41.199219 L 22.974609 35.001953 z M 7 52 C 6.448 52 6 52.448 6 53 L 6 55 C 6 55.552 6.448 56 7 56 C 7.552 56 8 55.552 8 55 L 8 53 C 8 52.448 7.552 52 7 52 z M 12 52 C 11.448 52 11 52.448 11 53 L 11 55 C 11 55.552 11.448 56 12 56 C 12.552 56 13 55.552 13 55 L 13 53 C 13 52.448 12.552 52 12 52 z M 17 52 C 16.448 52 16 52.448 16 53 L 16 55 C 16 55.552 16.448 56 17 56 C 17.552 56 18 55.552 18 55 L 18 53 C 18 52.448 17.552 52 17 52 z M 22 52 C 21.448 52 21 52.448 21 53 L 21 55 C 21 55.552 21.448 56 22 56 C 22.552 56 23 55.552 23 55 L 23 53 C 23 52.448 22.552 52 22 52 z M 27 52 C 26.448 52 26 52.448 26 53 L 26 55 C 26 55.552 26.448 56 27 56 C 27.552 56 28 55.552 28 55 L 28 53 C 28 52.448 27.552 52 27 52 z M 32 52 C 31.448 52 31 52.448 31 53 L 31 55 C 31 55.552 31.448 56 32 56 C 32.552 56 33 55.552 33 55 L 33 53 C 33 52.448 32.552 52 32 52 z M 37 52 C 36.448 52 36 52.448 36 53 L 36 55 C 36 55.552 36.448 56 37 56 C 37.552 56 38 55.552 38 55 L 38 53 C 38 52.448 37.552 52 37 52 z M 42 52 C 41.448 52 41 52.448 41 53 L 41 55 C 41 55.552 41.448 56 42 56 C 42.552 56 43 55.552 43 55 L 43 53 C 43 52.448 42.552 52 42 52 z M 47 52 C 46.448 52 46 52.448 46 53 L 46 55 C 46 55.552 46.448 56 47 56 C 47.552 56 48 55.552 48 55 L 48 53 C 48 52.448 47.552 52 47 52 z M 52 52 C 51.448 52 51 52.448 51 53 L 51 55 C 51 55.552 51.448 56 52 56 C 52.552 56 53 55.552 53 55 L 53 53 C 53 52.448 52.552 52 52 52 z M 57 52 C 56.448 52 56 52.448 56 53 L 56 55 C 56 55.552 56.448 56 57 56 C 57.552 56 58 55.552 58 55 L 58 53 C 58 52.448 57.552 52 57 52 z"/>
</svg>