<svg xmlns="http://www.w3.org/2000/svg" xmlns:xlink="http://www.w3.org/1999/xlink" version="1.1" x="0px" y="0px" viewBox="0 0 70 87.5" style="enable-background:new 0 0 70 70;" xml:space="preserve"><style type="text/css">
	.st0{fill:none;stroke:#000000;stroke-width:2;stroke-linecap:round;stroke-linejoin:round;stroke-miterlimit:10;}
	.st1{fill:none;}
</style><g><g><g><path fill="white" d="M49.8088379,37.6503906c-0.2226563,0-0.4433594-0.0742188-0.6240234-0.21875     c-1.1542969-0.921875-2.5517578-1.5166016-4.0410156-1.7197266c-0.4951172-0.0683594-0.8642578-0.4912109-0.8642578-0.9912109     v-8.4501953h-8.7304688c-0.5527344,0-1-0.4472656-1-1v-8.7402344H15.5588379c-0.5527344,0-1-0.4472656-1-1V11     c0-0.5527344,0.4472656-1,1-1h34.25c0.5527344,0,1,0.4472656,1,1v25.6503906c0,0.3837891-0.2197266,0.734375-0.5664063,0.9013672     C50.1047363,37.6181641,49.9562988,37.6503906,49.8088379,37.6503906z M46.279541,33.8857422     c0.8837891,0.1972656,1.734375,0.5087891,2.5292969,0.9248047V12h-32.25v2.5302734h18.9902344c0.5527344,0,1,0.4472656,1,1     v8.7402344h8.7304688c0.5527344,0,1,0.4472656,1,1V33.8857422z"/></g></g><g><g><path fill="white" d="M49.8088379,55.4804688H45.279541c-0.5527344,0-1-0.4472656-1-1v-1.2197266     c0-0.5029297,0.3730469-0.9267578,0.8710938-0.9921875c1.0537109-0.1357422,2.0537109-0.4716797,2.9726563-0.9960938     c0.1660156-0.0927734,0.3232422-0.1894531,0.4824219-0.2949219c0.0234375-0.015625,0.0478516-0.0302734,0.0722656-0.0429688     l0.0605469-0.0429688c0.1025391-0.0703125,0.2041016-0.1396484,0.3007813-0.2177734     c0.0185547-0.015625,0.0664063-0.0507813,0.0869141-0.0644531c0.3886719-0.390625,1.0107422-0.3779297,1.4013672,0.0126953     c0.390625,0.3896484,0.3789063,1.0351563-0.0117188,1.4257813C50.4299316,52.1337891,50.3469238,52.1962891,50.270752,52.25     c-0.0488281,0.0390625-0.1044922,0.0810547-0.1650391,0.125c0.4072266,0.1269531,0.703125,0.5058594,0.703125,0.9550781     v1.1503906C50.8088379,55.0332031,50.3615723,55.4804688,49.8088379,55.4804688z M48.1818848,53.4804688h0.6269531v-0.1503906     c0-0.0546875,0.0039063-0.1074219,0.0126953-0.1591797C48.6115723,53.28125,48.3986816,53.3847656,48.1818848,53.4804688z"/></g></g><g><g><path fill="white" d="M45.279541,60h-34.25c-0.5527344,0-1-0.4472656-1-1V15.5302734c0-0.5527344,0.4472656-1,1-1h24.5195313     c0.5527344,0,1,0.4472656,1,1v8.7402344h8.7304688c0.5527344,0,1,0.4472656,1,1v9.4501953     c0,0.2890625-0.125,0.5634766-0.3417969,0.7529297c-0.2177734,0.1904297-0.5078125,0.2753906-0.7929688,0.2382813     c-2.6113281-0.3574219-5.1884766,0.5058594-7.0488281,2.3652344c-0.2001953,0.2011719-0.3857422,0.4033203-0.5537109,0.6142578     c-0.0029297,0.0048828-0.0068359,0.0097656-0.0107422,0.0136719c-1.4326172,1.7421875-2.0957031,4.0429688-1.8193359,6.3154297     c0.2314453,1.8583984,1.0605469,3.5488281,2.3945313,4.8828125c0.5625,0.5634766,1.2050781,1.0439453,1.9121094,1.4296875     c1.5673828,0.8603516,3.3398438,1.1816406,5.1240234,0.9375c0.2900391-0.0449219,0.5761719,0.046875,0.7939453,0.2363281     c0.2177734,0.1904297,0.3427734,0.4648438,0.3427734,0.7539063V59C46.279541,59.5527344,45.8322754,60,45.279541,60z      M12.029541,58h32.25v-3.6542969c-1.8261719,0.0537109-3.6103516-0.375-5.2207031-1.2578125     c-0.8730469-0.4765625-1.6699219-1.0732422-2.3671875-1.7705078c-1.6503906-1.6513672-2.6767578-3.7451172-2.9648438-6.0527344     c-0.3417969-2.8125,0.4804688-5.6611328,2.2539063-7.8222656c0.2119141-0.2666016,0.4443359-0.5214844,0.6992188-0.7783203     c2.0371094-2.0351563,4.7470703-3.0927734,7.5996094-3.0273438v-7.3662109h-8.7304688c-0.5527344,0-1-0.4472656-1-1v-8.7402344     H12.029541V58z M36.7590332,38.0703125h0.0097656H36.7590332z"/></g></g><g><g><path fill="white" d="M45.2824707,26.2675781h-9.7353516c-0.5527344,0-1-0.4472656-1-1v-9.7353516     c0-0.4042969,0.2431641-0.7695313,0.6171875-0.9238281c0.3740234-0.1552734,0.8037109-0.0693359,1.0898438,0.2167969     l9.7353516,9.7353516c0.2861328,0.2861328,0.3720703,0.7158203,0.2167969,1.0898438     C46.052002,26.0244141,45.6867676,26.2675781,45.2824707,26.2675781z M36.5471191,24.2675781h6.3212891l-6.3212891-6.3212891     V24.2675781z"/></g></g><g><g><path fill="white" d="M39.5393066,53.2109375h-24.5c-0.5527344,0-1-0.4472656-1-1s0.4472656-1,1-1h24.5c0.5527344,0,1,0.4472656,1,1     S40.092041,53.2109375,39.5393066,53.2109375z"/></g></g><g><g><path fill="white" d="M34.7189941,46.140625H15.0393066c-0.5527344,0-1-0.4472656-1-1s0.4472656-1,1-1h19.6796875c0.5527344,0,1,0.4472656,1,1     S35.2717285,46.140625,34.7189941,46.140625z"/></g></g><g><g><path fill="white" d="M36.7590332,39.0703125H15.0393066c-0.5527344,0-1-0.4472656-1-1s0.4472656-1,1-1h21.7197266     c0.5527344,0,1,0.4472656,1,1S37.3117676,39.0703125,36.7590332,39.0703125z"/></g></g><g><g><path fill="white" d="M40.7541504,32.0039063H15.0344238c-0.5527344,0-1-0.4472656-1-1s0.4472656-1,1-1h25.7197266     c0.5527344,0,1,0.4472656,1,1S41.3068848,32.0039063,40.7541504,32.0039063z"/></g></g><g><g><path fill="white" d="M31.2609863,24.6083984H15.0344238c-0.5527344,0-1-0.4472656-1-1s0.4472656-1,1-1h16.2265625     c0.5527344,0,1,0.4472656,1,1S31.8137207,24.6083984,31.2609863,24.6083984z"/></g></g><g><g><path fill="white" d="M56.5100098,59.9501953c-0.0380859,0.0009766-0.0761719,0.0009766-0.1123047,0     c-0.8681641,0-1.7285156-0.359375-2.3984375-1.015625l-6.0869141-6.0869141     c-0.2216797-0.2216797-0.3261719-0.5341797-0.2832031-0.84375c0.0429688-0.3105469,0.2285156-0.5830078,0.5019531-0.7363281     c0.1582031-0.0878906,0.3154297-0.1845703,0.4746094-0.2900391c0.0234375-0.015625,0.0478516-0.0302734,0.0722656-0.0429688     l0.0605469-0.0429688c0.1025391-0.0703125,0.2041016-0.1396484,0.3007813-0.2177734     c0.0185547-0.015625,0.0664063-0.0507813,0.0869141-0.0644531c0.03125-0.03125,0.0410156-0.0371094,0.0771484-0.0644531     c0.2480469-0.1884766,0.4853516-0.3984375,0.7275391-0.640625c0.2519531-0.2509766,0.4931641-0.53125,0.7412109-0.8574219     c0.1044922-0.1367188,0.2001953-0.2714844,0.2949219-0.4052734c0.0107422-0.0185547,0.0214844-0.0371094,0.0332031-0.0556641     c0.0986328-0.1513672,0.1962891-0.3134766,0.2861328-0.4736328c0.1533203-0.2734375,0.4257813-0.4589844,0.7363281-0.5019531     c0.3037109-0.0439453,0.6230469,0.0625,0.84375,0.2832031l6.0800781,6.0800781     c1.3652344,1.3652344,1.3652344,3.5878906,0,4.9541016l0,0C58.2854004,59.5888672,57.4221191,59.9501953,56.5100098,59.9501953z      M58.239502,58.2207031h0.0097656H58.239502z M56.4523926,57.9501953c0.375-0.0117188,0.7919922-0.1484375,1.0800781-0.4365234     c0.5859375-0.5869141,0.5859375-1.5400391,0-2.1259766l-5.2089844-5.2089844     c-0.0195313,0.0263672-0.0400391,0.0527344-0.0595703,0.0791016c-0.3017578,0.3974609-0.6025391,0.7460938-0.9189453,1.0605469     c-0.2910156,0.2919922-0.5830078,0.5507813-0.8896484,0.7871094C50.3908691,52.1630859,50.3283691,52.2089844,50.270752,52.25     c-0.0224609,0.0175781-0.046875,0.0371094-0.0722656,0.0556641l5.2080078,5.2080078     C55.6984863,57.7998047,56.0588379,57.9394531,56.4523926,57.9501953z"/></g></g><g><g><path fill="white" d="M43.9797363,54.3505859c-1.7177734,0-3.3974609-0.4277344-4.9208984-1.2626953     c-0.8730469-0.4765625-1.6699219-1.0732422-2.3671875-1.7705078c-1.6503906-1.6513672-2.6767578-3.7451172-2.9648438-6.0527344     c-0.3417969-2.8154297,0.4824219-5.6679688,2.2597656-7.8291016c0.2021484-0.2558594,0.4365234-0.5126953,0.6933594-0.7714844     c2.3066406-2.3056641,5.4863281-3.3710938,8.734375-2.9345703c1.8466797,0.2529297,3.5820313,0.9921875,5.0185547,2.1396484     c0.2939453,0.2216797,0.6083984,0.4980469,0.9140625,0.8056641c3.2802734,3.2802734,3.9765625,8.3916016,1.6923828,12.4277344     c-0.0273438,0.0498047-0.0595703,0.0957031-0.0947266,0.1386719c-0.0693359,0.1201172-0.1425781,0.2402344-0.2167969,0.3554688     c-0.0205078,0.0429688-0.0449219,0.0830078-0.0722656,0.1210938c-0.1269531,0.1796875-0.2548828,0.3603516-0.3916016,0.5400391     c-0.3017578,0.3974609-0.6025391,0.7460938-0.9189453,1.0605469c-0.2910156,0.2919922-0.5830078,0.5507813-0.8896484,0.7871094     C50.3908691,52.1630859,50.3283691,52.2089844,50.270752,52.25c-0.1083984,0.0878906-0.2509766,0.1875-0.3945313,0.2871094     l-0.1298828,0.0898438c-0.0371094,0.0263672-0.0771484,0.0507813-0.1171875,0.0712891     c-0.1748047,0.1132813-0.3476563,0.2177734-0.5214844,0.3154297c-1.1386719,0.6503906-2.3857422,1.0683594-3.6992188,1.2392578     C44.9309082,54.3183594,44.4533691,54.3505859,43.9797363,54.3505859z M43.9875488,35.6328125     c-2.2070313,0-4.3066406,0.8603516-5.8916016,2.4443359c-0.2001953,0.2011719-0.3857422,0.4033203-0.5537109,0.6142578     c-1.4433594,1.7558594-2.1064453,4.0566406-1.8300781,6.3291016c0.2314453,1.8583984,1.0605469,3.5488281,2.3945313,4.8828125     c0.5625,0.5634766,1.2050781,1.0439453,1.9121094,1.4296875c1.5673828,0.8603516,3.3398438,1.1816406,5.1240234,0.9375     c1.0615234-0.1376953,2.0615234-0.4736328,2.9804688-0.9980469c0.1660156-0.0927734,0.3232422-0.1894531,0.4824219-0.2949219     c0.0234375-0.015625,0.0478516-0.0302734,0.0722656-0.0429688l0.0605469-0.0429688     c0.1025391-0.0703125,0.2041016-0.1396484,0.3007813-0.2177734c0.0185547-0.015625,0.0664063-0.0507813,0.0869141-0.0644531     c0.03125-0.03125,0.0410156-0.0371094,0.0771484-0.0644531c0.2480469-0.1884766,0.4853516-0.3984375,0.7275391-0.640625     c0.2519531-0.2509766,0.4931641-0.53125,0.7412109-0.8574219c0.1044922-0.1367188,0.2001953-0.2714844,0.2949219-0.4052734     c0.0107422-0.0185547,0.0214844-0.0371094,0.0332031-0.0556641c0.0986328-0.1513672,0.1962891-0.3134766,0.2861328-0.4736328     c0.0263672-0.046875,0.0556641-0.0908203,0.0888672-0.1318359c1.7509766-3.2353516,1.1679688-7.28125-1.4433594-9.8925781     c-0.2431641-0.2431641-0.4863281-0.4589844-0.7265625-0.640625c-1.1748047-0.9375-2.5722656-1.5322266-4.0615234-1.7353516     C44.7570801,35.6591797,44.3703613,35.6328125,43.9875488,35.6328125z"/></g></g><g><g><path fill="white" d="M51.8381348,50.1308594c-0.1933594,0-0.3886719-0.0556641-0.5605469-0.171875     c-0.4501953-0.3056641-0.5742188-0.9160156-0.2773438-1.3730469c0.0986328-0.1513672,0.1962891-0.3134766,0.2861328-0.4736328     c0.1533203-0.2734375,0.4257813-0.4589844,0.7363281-0.5019531c0.3037109-0.0439453,0.6230469,0.0625,0.84375,0.2832031     c0.3154297,0.3154297,0.3935547,0.8115234,0.1777344,1.2011719c-0.1171875,0.2119141-0.2470703,0.4130859-0.3886719,0.6132813     C52.4611816,49.9833984,52.1525879,50.1308594,51.8381348,50.1308594z"/></g></g></g></svg>