<svg xmlns="http://www.w3.org/2000/svg" xmlns:xlink="http://www.w3.org/1999/xlink" version="1.1" x="0px" y="0px" viewBox="0 0 100 125" style="enable-background:new 0 0 100 100;" xml:space="preserve"><g><path fill="white" stroke="white" d="M30.9,65.4c0,4.1,3.4,7.5,7.5,7.5c4.2,0,7.5-3.4,7.5-7.5c0-4.1-3.4-7.5-7.5-7.5C34.3,57.9,30.9,61.3,30.9,65.4z M43.3,65.4   c0,2.7-2.2,4.9-4.9,4.9c-2.7,0-4.9-2.2-4.9-4.9c0-2.7,2.2-4.9,4.9-4.9C41.1,60.5,43.3,62.7,43.3,65.4z"/><path fill="white" stroke="white" d="M54,65.4c0,4.1,3.4,7.5,7.5,7.5c4.2,0,7.5-3.4,7.5-7.5c0-4.1-3.4-7.5-7.5-7.5S54,61.3,54,65.4z M66.4,65.4   c0,2.7-2.2,4.9-4.9,4.9s-4.9-2.2-4.9-4.9c0-2.7,2.2-4.9,4.9-4.9S66.4,62.7,66.4,65.4z"/><path fill="white" stroke="white" d="M84.6,72.9c4.1,0,7.5-3.4,7.5-7.5c0-4.1-3.4-7.5-7.5-7.5c-4.1,0-7.5,3.4-7.5,7.5C77.1,69.5,80.5,72.9,84.6,72.9z    M84.6,60.5c2.7,0,4.9,2.2,4.9,4.9c0,2.7-2.2,4.9-4.9,4.9c-2.7,0-4.9-2.2-4.9-4.9C79.7,62.7,81.9,60.5,84.6,60.5z"/><path fill="white" stroke="white" d="M94.9,75.8c-1.5-1.6-3.3-2.5-5.4-2.7c-0.3-0.1-0.6,0-0.9,0.2c0,0-1.4,1.1-3.4,1.2h-0.1c-0.1,0-0.1,0-0.2,0   c-0.1,0-0.1,0-0.2,0c-0.1,0-0.3,0-0.4,0c-2.1-0.1-3.6-1.2-3.6-1.2c-0.3-0.1-0.6-0.2-0.9-0.2c-2,0.2-3.9,1.1-5.4,2.7   c-0.5,0.6-1,1.2-1.4,2c-0.4-0.7-0.8-1.3-1.4-1.9c-1.6-1.6-3.4-2.5-5.5-2.7c-0.3-0.1-0.6,0-0.9,0.2c0,0-1.1,0.8-2.7,1.1   c-0.1,0-0.2,0-0.3,0H62c-0.1,0-0.1,0-0.2,0c-0.1,0-0.1,0-0.2,0c-0.1,0-0.3,0-0.4,0c-2-0.1-3.5-1.2-3.5-1.2   c-0.3-0.1-0.6-0.2-0.9-0.2c-2.1,0.2-4,1.1-5.5,2.7c-0.5,0.6-1,1.2-1.4,1.9c-0.4-0.6-0.8-1.2-1.3-1.8c-1.6-1.6-3.4-2.5-5.5-2.7   c-0.3-0.1-0.6,0-0.9,0.2c0,0-1.2,0.9-2.8,1.1c-0.1,0-0.3,0-0.5,0c0,0,0,0-0.1,0c-2.5,0.2-4.4-1.2-4.4-1.2c-0.3-0.1-0.6-0.2-0.9-0.2   c-2,0.2-3.9,1.1-5.4,2.7c-1.6,1.8-2.6,4.2-2.6,6.7v3.7c0,0.3,0.2,0.7,0.4,0.9c0.2,0.3,0.6,0.4,0.9,0.4h10.8h1.6h10.7H50h10.7h1.6   H73h0.1h10.7h1.6h10.8c0.3,0,0.7-0.1,0.9-0.4c0.3-0.2,0.4-0.6,0.4-0.9v-3.7C97.5,79.9,96.6,77.5,94.9,75.8z M94.9,84.9h-9.5h-1.6   H73.1H73H62.3h-1.6H50h-0.1H37.6c0,0,0,0,0,0h-9.5v-2.4c0-1.9,0.7-3.6,1.9-4.9c1-1.1,2.1-1.7,3.4-1.9c0.7,0.4,1.9,1.1,3.6,1.3   c0.2,0.1,0.3,0.2,0.5,0.2h0.2c0.1,0,0.2,0,0.3,0c0.4,0,0.7,0,1,0c2-0.2,3.6-1,4.4-1.4c1.3,0.3,2.4,0.9,3.4,1.9   c1.1,1.1,1.8,2.8,1.9,4.5c0,0.6,0.4,1,0.9,1.1c0.1,0,0.3,0.1,0.4,0.1c0.4,0,0.7-0.2,0.9-0.4c0.2-0.2,0.4-0.6,0.3-0.9   c0.1-1.7,0.8-3.3,1.9-4.5c1-1.1,2.1-1.7,3.4-1.9c0.7,0.4,1.9,1,3.5,1.3c0.2,0.1,0.3,0.2,0.5,0.2h0.2c0.1,0,0.3,0,0.3,0   c0.4,0,0.7,0,1,0c2-0.2,3.6-1,4.4-1.4c1.3,0.3,2.4,0.9,3.4,1.9c1.1,1.2,1.8,2.8,1.9,4.5c0,0.6,0.5,1.1,1.1,1.2c0,0,0,0,0,0   c0.1,0,0.1,0,0.2,0c0,0,0,0,0,0c0,0,0,0,0.1,0c0.3,0,0.6-0.2,0.9-0.5c0.1-0.1,0.1-0.2,0.2-0.3c0,0,0-0.1,0-0.1c0,0,0,0,0,0   c0-0.1,0.1-0.3,0.1-0.4c0.1-1.7,0.8-3.3,1.9-4.5c1-1.1,2.1-1.7,3.4-1.9c0.7,0.5,2.1,1.2,4,1.4c0,0,0.1,0,0.1,0c0.1,0,0.2,0,0.3,0   c0,0,0.1,0,0.1,0c0,0,0,0,0,0c0.3,0,0.6,0,0.9,0c0.1,0,0.2,0,0.3,0h0.2c0.2,0,0.4-0.1,0.5-0.1c1.6-0.3,2.9-0.9,3.6-1.3   c1.3,0.3,2.4,0.9,3.4,1.9c1.2,1.3,1.9,3,1.9,4.9V84.9z"/><path stroke="white" fill="white" d="M26.9,69.9c0.2-0.3,0.4-0.7,0.4-1.1v-3.9c0-5.9-0.1-10.2-0.2-13.4l5.1,1.7c0.2,0.1,0.3,0.1,0.5,0.1c0.5,0,1-0.2,1.3-0.6   l1.5-2.1c0.2,0.1,0.4,0.1,0.6,0.1h35.7c3.1,0,5.6-2.5,5.6-5.5V16.6c0-3.1-2.5-5.6-5.6-5.6h-49c-3.1,0-5.6,2.5-5.6,5.6v5.6   c-1-0.4-2-0.6-3.1-0.6c-4.4,0-8,3.6-8,8c0,4.4,3.6,8,8,8c4.5,0,8-3.6,8-8c0-2-0.8-3.9-2-5.3c0.1-0.2,0.1-0.3,0.1-0.5v-7.2   c0-1.4,1.2-2.6,2.6-2.6h49c1.4,0,2.6,1.2,2.6,2.6v28.5c0,1.4-1.2,2.6-2.6,2.6H37.5l4.6-6.6c0.1-0.1,0.2-0.2,0.2-0.4   c0.4-1.3,0.3-2.3-0.2-3.2c-0.1-0.1-0.2-0.3-0.3-0.4l5.6-8.2c0.5-0.7,0.3-1.6-0.4-2.1s-1.6-0.3-2.1,0.4l-6,8.7c-1.4,0-2.7,0.7-3.6,2   l-4.8,6.7l-5.1-2.4c-0.2-0.4-0.5-0.8-0.8-1.1c-1.6-1.7-3.4-2.7-5.6-2.9c-0.4,0-0.8,0.1-1.1,0.3c0,0-1.4,1.1-3.4,1.2   c-0.1,0-0.2,0-0.4,0c-0.1,0-0.2,0-0.4,0c-2-0.1-3.4-1.2-3.4-1.2c-0.3-0.2-0.7-0.3-1.1-0.3c-2.2,0.2-4,1.2-5.6,2.9   C2,43,1,45.5,1,48.2v20.7c0,0.4,0.2,0.8,0.4,1.1c0.3,0.2,0.7,0.4,1.1,0.4h10.8H15h10.8C26.2,70.4,26.7,70.2,26.9,69.9z M14.1,34.5   c-2.7,0-5-2.2-5-5c0-2.7,2.2-5,5-5c2.8,0,5.1,2.2,5,5C19.1,32.2,16.9,34.5,14.1,34.5z M30.3,47.8c0.7,0.3,1.5,0.1,1.9-0.5l5.5-7.7   c0.4-0.5,1-0.8,1.5-0.7c0,0,0,0,0.1,0c0,0,0,0,0,0c0.1,0.1,0.2,0.1,0.2,0.1s0.1,0.2,0,0.6L32,49.9l-5.2-1.7   c-0.1-0.8-0.2-1.6-0.3-2.2L30.3,47.8z M24.2,67.4H13.3c-0.2,0-0.3,0-0.5,0.1H4.1V48.3c0-2,0.7-3.8,1.9-5.1c0.9-1,2-1.7,3.2-1.9   c0.7,0.3,1.9,1,3.5,1.3c0.1,0.1,0.3,0.1,0.4,0.1c0.1,0,0.2,0,0.3,0c0.2,0,0.3,0,0.5,0c0.1,0,0.1,0,0.2,0c0.2,0,0.3,0,0.5,0   c0.1,0,0.2,0,0.4,0c0.1,0,0.2,0,0.3,0c0.1,0,0.3-0.1,0.4-0.1c1.6-0.3,2.8-0.9,3.5-1.3c1.2,0.3,2.3,0.9,3.2,1.9   c0.1,0.1,0.1,0.1,0.2,0.2c0.1,0.3,0.2,0.6,0.5,0.8c0.8,1.8,1.2,6.2,1.2,20.8V67.4z"/><path stroke="white" fill="white" stroke-width="2" d="M64.9,22H32.1c-0.9,0-1.6,0.7-1.6,1.6c0,0.9,0.7,1.6,1.6,1.6h32.7c0.9,0,1.8-0.7,1.8-1.6C66.6,22.7,65.8,22,64.9,22z"/><path stroke="white" fill="white" d="M64.8,30h-13c-0.9,0-1.6,0.7-1.6,1.6c0,0.9,0.7,1.6,1.6,1.6h13c0.9,0,1.7-0.7,1.7-1.6C66.5,30.7,65.7,30,64.8,30z"/><path stroke="white" stroke-width="2" fill="white" d="M64.8,37.3h-13c-0.9,0-1.6,0.7-1.6,1.6c0,0.9,0.7,1.6,1.6,1.6h13c0.9,0,1.7-0.7,1.7-1.6C66.5,38,65.7,37.3,64.8,37.3z"/></g></svg>